# xmcd CD Database Entry
#
# Track frame offsets:
# 150
# 17452
# 31555
# 46465
# 64262
# 65862
# 83437
# 98100
# 117662
# 136220
# 154847
# 172167
# 192197
#
# Disc length: 2822 seconds
#
# Revision: 1
# Processed by: cddbd v1.5.1PL0 Copyright (c) Steve Scherf et al.
# Submitted via: RSJCDWriter_freedb_lib_OS/2 1.02
#
DISCID=ab0b040d
DTITLE=SHeDAISY - Brand New Year
DYEAR=1900
DGENRE=
TTITLE0=Deck The Halls
TTITLE1=Santa's Got A New Bag
TTITLE2=That's What I Want For Christmas
TTITLE3=Jingle Bells
TTITLE4=A Really, Really Merry Scary Intro
TTITLE5=Tinseltown
TTITLE6=Sleigh Ride
TTITLE7=What Child Is This
TTITLE8=Hark The Herald Angels Sing - Carol Of The Bells
TTITLE9=The Secret Of Christmas
TTITLE10=Christmas Children
TTITLE11=Twist Of The Magi (with Rascal Flatts)
TTITLE12=Brand New Year (My Revolution)
EXTD=
EXTT0=
EXTT1=
EXTT2=
EXTT3=
EXTT4=
EXTT5=
EXTT6=
EXTT7=
EXTT8=
EXTT9=
EXTT10=
EXTT11=
EXTT12=
PLAYORDER=
